<svg xmlns="http://www.w3.org/2000/svg" version="1.1" xmlns:xlink="http://www.w3.org/1999/xlink" xmlns:svgjs="http://svgjs.dev/svgjs" width="100%" height="100%" viewBox="0 0 1000 600"><rect width="1000" height="600" x="0" y="0" fill="#050505"/><g><rect width="333.3333333333333" height="333.3333333333333" rx="13.333333333333334" ry="13.333333333333334" y="296.252899906366" fill="#616161" transform="matrix(0.45615330917195795,0,0,0.45615330917195795,0,88.83770617619425)" x="274.0306701660156"/><path d="M480.11533336195663 414.11004187381945L480.11533336195663 432.6946977084056L445.5915243026899 432.6946977084056L445.5915243026899 504.5862311325875Q445.5915243026899 514.5730034849807 451.04787343562 516.9539558338956L451.04787343562 516.9539558338956Q455.57829665508314 518.8719452260772 462.721153701828 518.8719452260772Q469.8640107485728 518.8719452260772 478.4288254481419 515.069035224338L478.4288254481419 515.069035224338L480.11533336195663 515.069035224338L480.11533336195663 532.6946963628334Q470.09549222693954 537.9195640173967 458.6867622217221 537.9195640173967L458.6867622217221 537.9195640173967Q423.8984029014648 537.9195640173967 423.8984029014648 506.504220524769L423.8984029014648 506.504220524769L423.8984029014648 432.6946977084056L401.2793555867728 432.6946977084056L401.2793555867728 431.2396712729576L445.5915243026899 387.91956603575505L445.5915243026899 414.11004187381945L480.11533336195663 414.11004187381945Z " fill="#050505" transform="matrix(0.45615330917195795,0,0,0.45615330917195795,0,88.83770617619425)"/><path d="M742.433452378875 422.2945620390112L742.433452378875 434.49074210993416L719.7772032791535 434.49074210993416L719.7772032791535 481.6695596796608Q719.7772032791535 488.22337886367984 723.3579323035348 489.7858788015917L723.3579323035348 489.7858788015917Q726.3310224631725 491.0445593071318 731.018522276908 491.0445593071318Q735.7060220906435 491.0445593071318 741.3266815895208 488.54889968407815L741.3266815895208 488.54889968407815L742.433452378875 488.54889968407815L742.433452378875 500.115739502231Q735.8579318068294 503.54455881042645 728.3709529376686 503.54455881042645L728.3709529376686 503.54455881042645Q705.5410927337346 503.54455881042645 705.5410927337346 482.9282401852009L705.5410927337346 482.9282401852009L705.5410927337346 434.49074210993416L690.6973433235721 434.49074210993416L690.6973433235721 433.5358810367658L719.7772032791535 405.1070627219811L719.7772032791535 422.2945620390112L742.433452378875 422.2945620390112ZM804.3041096425782 420.7320621010994L804.3041096425782 420.7320621010994L805.5410887600917 420.7320621010994L805.5410887600917 434.3171310057217L804.3041096425782 434.3171310057217Q795.081019731293 434.3171310057217 787.1166103255481 437.91956141812955Q779.152200919803 441.5219918305374 774.6166108222534 447.9239012983706L774.6166108222534 447.9239012983706L774.6166108222534 501.9820588725146L760.4022016648611 501.9820588725146L760.4022016648611 422.2945620390112L772.9022011681557 422.2945620390112L774.6166108222534 432.2989019192523L774.6166108222534 434.64265182612L774.9204302546252 434.64265182612Q786.1834506404062 420.7320621010994 804.3041096425782 420.7320621010994ZM890.8709464804989 462.1383104557629L890.8709464804989 462.1383104557629L890.8709464804989 467.12962970187016L830.541087766681 467.12962970187016Q831.7997682722211 478.067129267253 838.6791082766384 484.16521930271443Q845.5584482810558 490.2633093381759 859.5341421701561 490.2633093381759Q873.5098360592564 490.2633093381759 885.4021966978075 482.4508096486167L885.4021966978075 482.4508096486167L886.1834466667634 482.4508096486167L886.1834466667634 496.20948965745146Q873.0541069106987 503.54455881042645 855.3240728930048 503.54455881042645Q837.5723374872842 503.54455881042645 826.8735531901935 492.69386479714984Q816.1747688931029 481.8214693958467 816.1747688931029 463.3101854091968Q816.1747688931029 444.7989014225469 825.7016782367597 432.7546310678099Q835.2285875804165 420.7320621010994 853.5228576868009 420.7320621010994Q871.7954264051587 420.7320621010994 881.3223357488156 432.7546310678099Q890.8709464804989 444.7989014225469 890.8709464804989 462.1383104557629ZM830.541087766681 455.58449127174384L830.541087766681 455.58449127174384L876.6348359350801 455.58449127174384Q876.0271970703366 444.32147088596275 869.0610515138129 438.54890167089957Q862.1166073453159 432.7546310678099 853.5228576868009 432.7546310678099Q844.9291080282858 432.7546310678099 838.0497680238684 438.54890167089957Q831.1704280194512 444.32147088596275 830.541087766681 455.58449127174384ZM939.3084445557656 485.0983789878562L963.9829227419567 422.2945620390112L979.4560124048891 422.2945620390112L946.0141734559706 501.9820588725146L931.9516740147641 501.9820588725146L898.5098350658457 422.2945620390112L913.9829247287781 422.2945620390112L938.6791043029956 485.0983789878562L939.3084445557656 485.0983789878562ZM987.8978523472182 462.1383104557629Q987.8978523472182 443.5402209170068 998.8353519126011 432.14699220306636Q1009.7728514779839 420.7320621010994 1027.8067049280496 420.7320621010994Q1045.862259766142 420.7320621010994 1056.8865648836309 432.14699220306636Q1067.8891686130933 443.5402209170068 1067.8891686130933 462.1383104557629Q1067.8891686130933 480.73639999451905 1056.8865648836309 492.12962870845945Q1045.862259766142 503.54455881042645 1027.8067049280496 503.54455881042645Q1009.7728514779839 503.54455881042645 998.8353519126011 492.12962870845945Q987.8978523472182 480.73639999451905 987.8978523472182 462.1383104557629ZM1009.8379556420635 483.4707748858647Q1017.5853511675431 490.56712877054764 1027.8935104801558 490.56712877054764Q1038.2016697927686 490.56712877054764 1045.949065318248 483.4707748858647Q1053.674759455701 476.3527196131553 1053.674759455701 462.0515049036567Q1053.674759455701 447.7719915821847 1045.949065318248 440.74074186158145Q1038.2016697927686 433.7094921409782 1027.8935104801558 433.7094921409782Q1017.5853511675431 433.7094921409782 1009.8379556420635 440.74074186158145Q1002.1122615046106 447.7719915821847 1002.1122615046106 462.0515049036567Q1002.1122615046106 476.3527196131553 1009.8379556420635 483.4707748858647ZM1131.6478466351068 420.7320621010994L1131.6478466351068 420.7320621010994L1132.8848257526201 420.7320621010994L1132.8848257526201 434.3171310057217L1131.6478466351068 434.3171310057217Q1122.4247567238217 434.3171310057217 1114.4603473180764 437.91956141812955Q1106.4959379123316 441.5219918305374 1101.960347814782 447.9239012983706L1101.960347814782 447.9239012983706L1101.960347814782 501.9820588725146L1087.7459386573896 501.9820588725146L1087.7459386573896 422.2945620390112L1100.245938160684 422.2945620390112L1101.960347814782 432.2989019192523L1101.960347814782 434.64265182612L1102.2641672471536 434.64265182612Q1113.5271876329348 420.7320621010994 1131.6478466351068 420.7320621010994ZM1191.4785734243137 420.7320621010994L1191.4785734243137 420.7320621010994Q1204.4560034641927 420.7320621010994 1211.96468372138 429.47772147580037Q1219.4516625905408 438.2233808505013 1219.4516625905408 451.352720606566L1219.4516625905408 451.352720606566L1219.4516625905408 501.9820588725146L1205.2372534331485 501.9820588725146L1205.2372534331485 452.9152205444778Q1205.2372534331485 433.8614018571641 1188.0497541161185 433.8614018571641L1188.0497541161185 433.8614018571641Q1174.464685211496 433.8614018571641 1162.4204148567592 448.8570609835124L1162.4204148567592 448.8570609835124L1162.4204148567592 501.9820588725146L1148.2060056993669 501.9820588725146L1148.2060056993669 422.2945620390112L1160.7060052026613 422.2945620390112L1162.4204148567592 432.2989019192523L1162.4204148567592 434.64265182612L1162.7459356771574 434.64265182612Q1175.397844896638 420.7320621010994 1191.4785734243137 420.7320621010994ZM1298.3579094550882 422.2945620390112L1313.679089401835 422.2945620390112L1265.6973204751257 537.9195574444867L1251.3310016015475 537.9195574444867L1264.764160789984 503.2407393780547L1231.7997523776498 422.2945620390112L1247.1209323243963 422.2945620390112L1272.1209313309855 485.2719900920686L1272.728570195729 485.2719900920686L1298.3579094550882 422.2945620390112ZM1328.0454082754131 439.48206135604136L1328.0454082754131 426.678242420375Q1341.652178568062 420.7320621010994 1357.190372395074 420.7320621010994Q1372.728566222086 420.7320621010994 1381.0184964482296 429.8032422961987Q1389.3084266743726 438.85272110327134 1389.3084266743726 451.50463032275184L1389.3084266743726 451.50463032275184L1389.3084266743726 501.9820588725146L1376.8084271710782 501.9820588725146L1375.0723161289538 491.9777189922736L1374.6165869803963 491.9777189922736Q1363.3535665946151 503.54455881042645 1345.7103381290276 503.54455881042645L1345.7103381290276 503.54455881042645Q1335.0766579960164 503.54455881042645 1327.654783290935 497.14264934259324Q1320.2329085858541 490.74073987476004 1320.2329085858541 479.6296292051648Q1320.2329085858541 468.5402199235961 1329.3691929450329 461.66087991917874Q1338.5271786922385 454.8032413027879 1356.170407157826 454.8032413027879L1356.170407157826 454.8032413027879L1375.0723161289538 454.8032413027879L1375.0723161289538 453.54456079724787Q1375.0723161289538 443.23640148463505 1369.9941913307407 438.7008113870855Q1364.916066532527 434.16522128953585 1352.4160670292322 434.16522128953585Q1339.9160675259377 434.16522128953585 1328.9785679605548 439.48206135604136L1328.9785679605548 439.48206135604136L1328.0454082754131 439.48206135604136ZM1375.0723161289538 479.32580977279304L1375.0723161289538 479.32580977279304L1375.0723161289538 466.19647001672837L1358.0584279161362 466.19647001672837Q1334.4473177432465 466.19647001672837 1334.4473177432465 478.63136535594333Q1334.4473177432465 491.0445593071318 1351.027178195533 491.0445593071318L1351.027178195533 491.0445593071318Q1357.8848168119239 491.0445593071318 1364.3084276677837 487.68084416301605Q1370.7103371356166 484.3171290189003 1375.0723161289538 479.32580977279304ZM1428.0454043017703 432.2989019192523Q1439.134813583339 420.7320621010994 1454.3040838138995 420.7320621010994Q1469.451652656434 420.7320621010994 1480.7797772062945 431.97338109885396Q1492.1079017561556 443.23640148463505 1492.1079017561556 462.1383104557629Q1492.1079017561556 481.04021942689076 1480.7797772062945 492.3032398126719Q1469.451652656434 503.54455881042645 1454.3040838138995 503.54455881042645Q1439.134813583339 503.54455881042645 1428.0454043017703 491.9777189922736L1428.0454043017703 491.9777189922736L1427.5896751532127 491.9777189922736L1425.8535641110884 501.9820588725146L1413.353564607794 501.9820588725146L1413.353564607794 387.91956340495096L1427.5896751532127 387.91956340495096L1427.5896751532127 432.2989019192523L1428.0454043017703 432.2989019192523ZM1452.2641533394035 490.2633093381759L1452.2641533394035 490.2633093381759Q1463.8309931575563 490.2633093381759 1470.8622428781596 482.9282401852009Q1477.8934925987628 475.57146964419934 1477.8934925987628 462.1383104557629Q1477.8934925987628 448.70515126732647 1470.8622428781596 441.34838072632493Q1463.8309931575563 434.01331157334994 1452.2641533394035 434.01331157334994L1452.2641533394035 434.01331157334994Q1438.201653898197 434.01331157334994 1427.5896751532127 445.7320611076887L1427.5896751532127 445.7320611076887L1427.5896751532127 478.54455980383716Q1438.201653898197 490.2633093381759 1452.2641533394035 490.2633093381759ZM1539.3084207139086 503.54455881042645L1539.3084207139086 503.54455881042645Q1526.3309906740296 503.54455881042645 1518.8223104168424 494.7988994357255Q1511.3353315476816 486.05324006102455 1511.3353315476816 472.9239003049599L1511.3353315476816 472.9239003049599L1511.3353315476816 422.2945620390112L1525.5497407050739 422.2945620390112L1525.5497407050739 471.361400367048Q1525.5497407050739 490.4152190543617 1542.7372400221038 490.4152190543617L1542.7372400221038 490.4152190543617Q1556.3223089267262 490.4152190543617 1568.3665792814631 475.4195599280135L1568.3665792814631 475.4195599280135L1568.3665792814631 422.2945620390112L1582.5809884388555 422.2945620390112L1582.5809884388555 501.9820588725146L1570.080988935561 501.9820588725146L1568.3665792814631 491.9777189922736L1568.3665792814631 489.63396908540585L1568.041058461065 489.63396908540585Q1555.3891492415846 503.54455881042645 1539.3084207139086 503.54455881042645ZM1649.2910552324802 422.2945620390112L1649.2910552324802 434.49074210993416L1626.6348061327585 434.49074210993416L1626.6348061327585 481.6695596796608Q1626.6348061327585 488.22337886367984 1630.2372365451665 489.7858788015917L1630.2372365451665 489.7858788015917Q1633.2103267048042 491.0445593071318 1637.8978265185397 491.0445593071318Q1642.5853263322751 491.0445593071318 1648.2059858311527 488.54889968407815L1648.2059858311527 488.54889968407815L1649.2910552324802 488.54889968407815L1649.2910552324802 500.115739502231Q1642.737236048461 503.54455881042645 1635.2285557912737 503.54455881042645L1635.2285557912737 503.54455881042645Q1612.4203969753662 503.54455881042645 1612.4203969753662 482.9282401852009L1612.4203969753662 482.9282401852009L1612.4203969753662 434.49074210993416L1597.576647565204 434.49074210993416L1597.576647565204 433.5358810367658L1626.6348061327585 405.1070627219811L1626.6348061327585 422.2945620390112L1649.2910552324802 422.2945620390112ZM1662.420394988545 462.1383104557629Q1662.420394988545 443.5402209170068 1673.3578945539275 432.14699220306636Q1684.2953941193105 420.7320621010994 1702.3509489574026 420.7320621010994Q1720.3848024074682 420.7320621010994 1731.409107524957 432.14699220306636Q1742.4334126424465 443.5402209170068 1742.4334126424465 462.1383104557629Q1742.4334126424465 480.73639999451905 1731.409107524957 492.12962870845945Q1720.3848024074682 503.54455881042645 1702.3509489574026 503.54455881042645Q1684.2953941193105 503.54455881042645 1673.3578945539275 492.12962870845945Q1662.420394988545 480.73639999451905 1662.420394988545 462.1383104557629ZM1684.3821996714169 483.4707748858647Q1692.10789380887 490.56712877054764 1702.4160531214825 490.56712877054764Q1712.7459138221216 490.56712877054764 1720.4716079595746 483.4707748858647Q1728.1973020970277 476.3527196131553 1728.1973020970277 462.0515049036567Q1728.1973020970277 447.7719915821847 1720.4716079595746 440.74074186158145Q1712.7459138221216 433.7094921409782 1702.4160531214825 433.7094921409782Q1692.10789380887 433.7094921409782 1684.3821996714169 440.74074186158145Q1676.6348041459373 447.7719915821847 1676.6348041459373 462.0515049036567Q1676.6348041459373 476.3527196131553 1684.3821996714169 483.4707748858647ZM1778.9785500791622 501.9820588725146L1761.48723132976 501.9820588725146L1761.48723132976 484.49074012311274L1778.9785500791622 484.49074012311274L1778.9785500791622 501.9820588725146ZM1817.737229094586 501.9820588725146L1803.5228199371936 501.9820588725146L1803.5228199371936 422.2945620390112L1817.737229094586 422.2945620390112L1817.737229094586 501.9820588725146ZM1803.0453894006096 390.11140359563285L1818.3665693473563 390.11140359563285L1818.3665693473563 405.41088215435286L1803.0453894006096 405.41088215435286L1803.0453894006096 390.11140359563285ZM1838.2016380036257 462.1383104557629Q1838.2016380036257 443.5402209170068 1849.1391375690082 432.14699220306636Q1860.0766371343916 420.7320621010994 1878.1321919724837 420.7320621010994Q1896.1660454225494 420.7320621010994 1907.1903505400383 432.14699220306636Q1918.2146556575276 443.5402209170068 1918.2146556575276 462.1383104557629Q1918.2146556575276 480.73639999451905 1907.1903505400383 492.12962870845945Q1896.1660454225494 503.54455881042645 1878.1321919724837 503.54455881042645Q1860.0766371343916 503.54455881042645 1849.1391375690082 492.12962870845945Q1838.2016380036257 480.73639999451905 1838.2016380036257 462.1383104557629ZM1860.1634426864975 483.4707748858647Q1867.8891368239506 490.56712877054764 1878.1972961365632 490.56712877054764Q1888.5271568372027 490.56712877054764 1896.2528509746558 483.4707748858647Q1903.9785451121083 476.3527196131553 1903.9785451121083 462.0515049036567Q1903.9785451121083 447.7719915821847 1896.2528509746558 440.74074186158145Q1888.5271568372027 433.7094921409782 1878.1972961365632 433.7094921409782Q1867.8891368239506 433.7094921409782 1860.1634426864975 440.74074186158145Q1852.416047161018 447.7719915821847 1852.416047161018 462.0515049036567Q1852.416047161018 476.3527196131553 1860.1634426864975 483.4707748858647Z " fill="#616161" transform="matrix(0.45615330917195795,0,0,0.45615330917195795,0,88.83770617619425)"/></g></svg>